<?xml version="1.0" standalone="no"?>
<!DOCTYPE svg PUBLIC "-//W3C//DTD SVG 20010904//EN"
 "http://www.w3.org/TR/2001/REC-SVG-20010904/DTD/svg10.dtd">
<svg version="1.0" xmlns="http://www.w3.org/2000/svg"
 width="871.000000pt" height="871.000000pt" viewBox="0 0 871.000000 871.000000"
 preserveAspectRatio="xMidYMid meet">
<metadata>
Created by potrace 1.14, written by Peter Selinger 2001-2017
</metadata>
<g transform="translate(0.000000,871.000000) scale(0.100000,-0.100000)"
fill="#000000" stroke="none">
<path d="M1567 8686 c-130 -54 -216 -152 -250 -286 -25 -97 -18 -285 13 -365
30 -78 58 -121 111 -171 96 -89 175 -130 393 -204 302 -104 788 -270 931 -320
83 -28 182 -62 220 -75 61 -20 434 -148 895 -306 285 -98 586 -201 625 -214
22 -7 159 -55 305 -105 290 -100 583 -200 843 -288 92 -31 167 -59 167 -62 0
-4 -416 -151 -470 -166 -8 -2 -53 -17 -100 -33 -115 -40 -617 -212 -760 -261
-63 -21 -248 -85 -410 -141 -162 -56 -320 -109 -350 -119 -53 -18 -352 -120
-1115 -382 -323 -110 -576 -197 -815 -278 -289 -98 -442 -222 -487 -393 -11
-40 -12 -241 -3 -284 38 -165 178 -304 391 -389 35 -14 73 -29 84 -34 11 -4
29 -11 40 -13 11 -3 155 -53 320 -112 165 -59 343 -122 395 -140 52 -18 212
-74 355 -125 481 -170 1140 -402 1190 -420 28 -9 104 -36 170 -60 66 -23 156
-55 200 -70 44 -16 152 -54 240 -85 247 -87 520 -184 625 -220 52 -19 160 -57
240 -85 80 -29 160 -56 178 -61 17 -6 32 -12 32 -14 0 -2 -21 -11 -47 -19 -43
-13 -1326 -446 -1363 -459 -8 -4 -103 -35 -210 -71 -200 -67 -1545 -520 -1770
-596 -69 -23 -256 -87 -417 -141 -160 -54 -323 -114 -363 -133 -224 -111 -308
-260 -297 -530 4 -122 7 -140 28 -205 30 -91 94 -176 168 -223 l45 -28 200 0
199 0 196 69 c108 38 331 117 496 176 165 59 305 108 310 109 6 2 17 6 25 9
16 7 287 103 330 117 14 4 90 31 170 60 80 29 156 56 170 60 27 9 259 91 465
165 72 26 137 48 145 50 8 3 193 68 410 145 417 149 511 182 705 250 66 23
149 52 185 65 36 13 227 81 425 150 198 70 369 130 380 135 11 4 112 41 225
80 460 161 526 188 618 258 97 72 150 149 187 268 28 87 32 285 9 374 -30 114
-97 210 -196 283 -69 50 -274 144 -378 172 -8 2 -181 63 -385 135 -203 73
-446 159 -540 192 -93 32 -199 70 -235 83 -58 21 -279 99 -880 311 -102 36
-239 85 -305 109 -194 69 -310 110 -480 170 -88 31 -189 67 -225 80 -36 13
-132 47 -215 75 -82 29 -159 56 -170 60 -11 5 -96 36 -189 68 -122 42 -163 61
-150 66 18 7 106 38 699 246 154 54 366 129 470 165 105 37 249 87 320 112
186 64 297 104 320 115 12 5 27 10 35 12 8 2 22 6 30 9 8 3 67 24 130 45 98
34 282 98 790 277 52 18 181 63 285 100 105 37 233 82 285 100 52 18 194 68
315 110 353 123 450 171 547 270 103 106 143 233 136 429 -12 302 -138 443
-520 580 -247 89 -1970 702 -2183 777 -16 6 -39 15 -50 19 -11 5 -186 68 -390
140 -538 191 -534 190 -605 215 -82 29 -359 128 -940 335 -250 90 -511 183
-580 207 -266 95 -286 101 -405 102 -95 1 -118 -2 -168 -23z"/>
</g>
</svg>
