<?xml version="1.0" standalone="no"?>
<!DOCTYPE svg PUBLIC "-//W3C//DTD SVG 20010904//EN"
 "http://www.w3.org/TR/2001/REC-SVG-20010904/DTD/svg10.dtd">
<svg version="1.0" xmlns="http://www.w3.org/2000/svg"
 width="512.000000pt" height="512.000000pt" viewBox="0 0 512.000000 512.000000"
 preserveAspectRatio="xMidYMid meet">
<metadata>
Created by potrace 1.14, written by Peter Selinger 2001-2017
</metadata>
<g transform="translate(0.000000,512.000000) scale(0.100000,-0.100000)"
fill="#000000" stroke="none">
<path d="M2530 5099 c-232 -59 -417 -252 -460 -481 -40 -207 22 -409 171 -559
220 -222 556 -248 811 -62 104 76 204 218 214 305 11 99 -77 185 -178 174 -58
-6 -103 -38 -130 -91 -37 -73 -86 -123 -151 -154 -55 -27 -70 -30 -137 -27
-117 5 -200 59 -250 160 -48 97 -44 197 11 286 50 82 125 129 220 137 116 11
219 -40 283 -140 60 -92 99 -117 176 -110 57 5 105 37 130 89 28 57 25 93 -15
169 -67 130 -212 248 -361 295 -96 31 -235 35 -334 9z"/>
<path d="M2400 3726 c-124 -40 -213 -109 -271 -210 -40 -69 -53 -125 -85 -365
-2 -19 -6 -46 -9 -60 -2 -14 -7 -46 -10 -71 -8 -56 -14 -98 -20 -130 -2 -14
-7 -45 -10 -70 -3 -25 -8 -56 -10 -70 -3 -14 -7 -45 -10 -70 -3 -25 -12 -88
-20 -140 -8 -52 -17 -113 -20 -135 -4 -22 -11 -69 -16 -105 -16 -100 -19 -188
-8 -244 23 -124 123 -257 235 -312 99 -49 223 -62 323 -34 19 5 35 8 36 7 1
-1 43 -110 94 -242 51 -132 97 -249 102 -260 5 -11 59 -148 120 -305 61 -157
149 -381 195 -498 46 -117 84 -216 84 -218 0 -3 12 -31 26 -62 41 -91 75 -119
155 -129 81 -10 158 57 167 146 4 42 -8 78 -105 327 -61 153 -134 340 -163
414 -161 414 -365 935 -390 998 -24 60 -27 77 -19 100 6 15 12 38 15 52 2 14
6 36 8 50 3 13 8 42 11 65 3 22 8 51 10 65 2 14 7 45 10 70 4 25 8 56 10 70 2
14 11 75 20 135 9 61 18 121 20 135 2 14 7 47 10 73 4 27 12 83 19 125 14 88
7 142 -21 180 -73 98 -226 86 -276 -21 -13 -26 -48 -227 -62 -347 -3 -28 -34
-241 -39 -268 -2 -9 -7 -42 -11 -72 -4 -30 -9 -64 -11 -75 -2 -11 -7 -42 -10
-70 -7 -58 -33 -99 -76 -121 -63 -33 -150 11 -164 82 -4 20 3 96 15 182 12 81
24 158 26 172 9 65 20 140 30 200 2 14 7 45 10 70 3 25 8 57 11 73 2 15 6 39
8 55 3 15 10 63 16 107 6 44 12 91 15 105 3 24 21 145 31 220 12 82 74 124
174 117 75 -6 114 -23 167 -75 59 -57 69 -74 252 -440 95 -189 183 -353 194
-366 30 -31 41 -36 217 -99 156 -56 309 -111 410 -148 144 -53 172 -56 229
-27 60 31 83 65 88 130 5 63 -17 112 -62 143 -30 20 -142 63 -470 180 -88 31
-165 62 -172 69 -7 6 -83 151 -169 321 -86 171 -171 330 -188 355 -160 234
-431 343 -666 266z"/>
<path d="M1763 3601 c-30 -19 -46 -32 -122 -97 -20 -16 -109 -90 -199 -163
-89 -73 -169 -145 -176 -159 -7 -15 -66 -184 -130 -377 -65 -192 -123 -361
-129 -374 -7 -13 -12 -54 -12 -90 0 -54 4 -72 24 -98 71 -95 226 -83 276 22 8
17 66 183 129 370 63 187 117 348 121 357 4 9 26 32 49 50 23 18 65 52 92 75
27 23 103 86 170 141 132 109 157 145 148 218 -14 114 -146 182 -241 125z"/>
<path d="M1867 1775 c-71 -18 -85 -38 -162 -225 -26 -63 -53 -128 -60 -145 -7
-16 -44 -104 -80 -195 -37 -91 -78 -190 -91 -220 -13 -30 -89 -215 -170 -410
-132 -319 -147 -361 -148 -417 -1 -72 17 -104 80 -141 30 -17 50 -21 85 -18
90 8 120 41 189 211 29 72 59 144 66 160 7 17 87 212 179 435 91 223 174 425
185 450 50 116 119 288 127 320 12 46 10 68 -12 113 -33 70 -108 102 -188 82z"/>
</g>
</svg>
